<svg width="336" height="336" viewBox="0 0 336 336" fill="none" xmlns="http://www.w3.org/2000/svg">
<rect width="336" height="336" rx="77" fill="#1E1A1D"/>
<mask id="path-2-outside-1" maskUnits="userSpaceOnUse" x="40.4677" y="19.8688" width="277" height="278" fill="black">
<rect fill="white" x="40.4677" y="19.8688" width="277" height="278"/>
<path fill-rule="evenodd" clip-rule="evenodd" d="M242.675 196.881C255.432 226.924 282.902 249.209 316.044 254.694C308.506 256.669 300.183 260.317 293.5 267C285.729 274.771 280.286 283.763 276.703 291.101C271.526 259.703 251.272 233.389 223.623 219.842L46.3273 167.009C43.3538 166.123 42.4775 162.336 44.7595 160.234L115.232 95.3144L176.549 24.257C178.563 21.9231 182.349 22.6485 183.357 25.5615L242.675 196.881Z"/>
</mask>
<path fill-rule="evenodd" clip-rule="evenodd" d="M242.675 196.881C255.432 226.924 282.902 249.209 316.044 254.694C308.506 256.669 300.183 260.317 293.5 267C285.729 274.771 280.286 283.763 276.703 291.101C271.526 259.703 251.272 233.389 223.623 219.842L46.3273 167.009C43.3538 166.123 42.4775 162.336 44.7595 160.234L115.232 95.3144L176.549 24.257C178.563 21.9231 182.349 22.6485 183.357 25.5615L242.675 196.881Z" fill="url(#paint0_linear)"/>
<path fill-rule="evenodd" clip-rule="evenodd" d="M242.675 196.881C255.432 226.924 282.902 249.209 316.044 254.694C308.506 256.669 300.183 260.317 293.5 267C285.729 274.771 280.286 283.763 276.703 291.101C271.526 259.703 251.272 233.389 223.623 219.842L46.3273 167.009C43.3538 166.123 42.4775 162.336 44.7595 160.234L115.232 95.3144L176.549 24.257C178.563 21.9231 182.349 22.6485 183.357 25.5615L242.675 196.881Z" fill="url(#paint1_linear)" fill-opacity="0.6"/>
<path d="M316.044 254.694L316.551 256.629L316.371 252.721L316.044 254.694ZM242.675 196.881L240.785 197.535L240.808 197.599L240.834 197.662L242.675 196.881ZM293.5 267L292.086 265.586L293.5 267ZM276.703 291.101L274.73 291.427L275.75 297.612L278.501 291.979L276.703 291.101ZM223.623 219.842L224.503 218.046L224.354 217.973L224.195 217.925L223.623 219.842ZM46.3273 167.009L45.7561 168.926H45.7561L46.3273 167.009ZM44.7595 160.234L46.1146 161.705H46.1146L44.7595 160.234ZM115.232 95.3144L116.587 96.7853L116.671 96.7077L116.746 96.621L115.232 95.3144ZM176.549 24.257L175.035 22.9503V22.9503L176.549 24.257ZM183.357 25.5615L185.247 24.9071V24.9071L183.357 25.5615ZM316.371 252.721C283.918 247.35 257.011 225.525 244.516 196.099L240.834 197.662C253.853 228.323 281.887 251.068 315.718 256.667L316.371 252.721ZM294.914 268.414C301.267 262.061 309.229 258.547 316.551 256.629L315.537 252.759C307.782 254.791 299.098 258.574 292.086 265.586L294.914 268.414ZM278.501 291.979C282.023 284.765 287.348 275.98 294.914 268.414L292.086 265.586C284.109 273.563 278.55 282.761 274.906 290.224L278.501 291.979ZM222.744 221.638C249.825 234.907 269.661 260.682 274.73 291.427L278.677 290.776C273.392 258.724 252.718 231.87 224.503 218.046L222.744 221.638ZM224.195 217.925L46.8985 165.092L45.7561 168.926L223.052 221.759L224.195 217.925ZM46.8985 165.092C45.4117 164.649 44.9736 162.756 46.1146 161.705L43.4044 158.763C39.9814 161.916 41.2959 167.597 45.7561 168.926L46.8985 165.092ZM46.1146 161.705L116.587 96.7853L113.877 93.8434L43.4044 158.763L46.1146 161.705ZM116.746 96.621L178.063 25.5636L175.035 22.9503L113.718 94.0077L116.746 96.621ZM178.063 25.5636C179.07 24.3967 180.963 24.7593 181.467 26.2158L185.247 24.9071C183.734 20.5376 178.056 19.4496 175.035 22.9503L178.063 25.5636ZM181.467 26.2158L240.785 197.535L244.565 196.226L185.247 24.9071L181.467 26.2158Z" fill="url(#paint2_linear)" mask="url(#path-2-outside-1)"/>
<path fill-rule="evenodd" clip-rule="evenodd" d="M49.7217 152.655C50.9953 151.918 53.3857 150.904 57.8191 149.876C65.1614 148.175 69.6001 148.012 70.6968 148H221.893L231.573 175.957C238.236 195.202 220.327 213.912 200.81 208.096L51.2895 163.54C46.8293 162.211 45.5148 156.53 48.9378 153.377L49.7217 152.655Z" fill="#FCCF4D"/>
<path fill-rule="evenodd" clip-rule="evenodd" d="M34.1364 211.9C35.719 213.943 38.7573 213.943 40.3399 211.9C42.3061 209.362 43.4763 206.176 43.4763 202.716C43.4763 199.257 42.3061 196.071 40.3399 193.532C38.7573 191.489 35.719 191.489 34.1364 193.532C32.1702 196.071 31 199.257 31 202.716C31 206.176 32.1702 209.362 34.1364 211.9Z" fill="#FCCF4D"/>
<path fill-rule="evenodd" clip-rule="evenodd" d="M57.8941 253.854C59.4508 255.917 62.501 255.917 64.0578 253.854C65.8746 251.446 66.9519 248.449 66.9519 245.201C66.9519 241.952 65.8746 238.955 64.0578 236.547C62.501 234.484 59.4508 234.484 57.8941 236.547C56.0773 238.955 55 241.952 55 245.201C55 248.449 56.0773 251.446 57.8941 253.854Z" fill="#FCCF4D"/>
<path fill-rule="evenodd" clip-rule="evenodd" d="M28.1334 282.121C29.7998 284.096 32.7998 284.096 34.4663 282.121C37.0453 279.064 38.5996 275.114 38.5996 270.801C38.5996 266.488 37.0453 262.539 34.4663 259.482C32.7998 257.506 29.7998 257.506 28.1334 259.482C25.5543 262.539 24 266.488 24 270.801C24 275.114 25.5543 279.064 28.1334 282.121Z" fill="#FCCF4D"/>
<path d="M281.806 155.784L273.933 148.038C273.785 147.887 273.903 147.636 274.117 147.647L282.121 148.049L273.75 146.081L282.511 141.257L273.653 144.475C273.45 144.545 273.266 144.335 273.365 144.149L278.411 135.08L272.137 143.348C272.004 143.517 271.728 143.434 271.713 143.219L271.201 132.142C271.182 131.853 270.746 131.853 270.729 132.142L270.206 143.217C270.193 143.429 269.917 143.512 269.782 143.344L263.562 135.156L268.552 144.145C268.651 144.331 268.465 144.538 268.263 144.471L263.449 142.823C263.142 142.718 262.952 143.147 263.232 143.305L268.165 146.074L259.789 148.027L267.793 147.64C268.007 147.629 268.126 147.881 267.977 148.032L262.425 153.678L268.944 149.126C269.119 149.003 269.355 149.154 269.316 149.36L267.773 157.02C267.773 157.022 267.776 157.025 267.778 157.022L270.95 149.231C270.95 149.228 270.954 149.228 270.954 149.231L273.026 154.343C273.15 154.653 273.616 154.513 273.551 154.185L272.588 149.362C272.547 149.156 272.785 149.007 272.96 149.13L281.806 155.784Z" fill="url(#paint3_radial)"/>
<path d="M271.208 153.127C271.142 152.591 270.788 151.646 270.788 151.646C270.788 151.646 270.388 152.564 270.311 153.127C270.237 153.689 270.512 153.969 270.759 153.969C271.007 153.969 271.273 153.663 271.208 153.127Z" fill="#FFF9C4"/>
<path d="M274.797 152.063C274.456 151.639 273.649 151.016 273.649 151.016C273.649 151.016 273.798 152.004 274.032 152.521C274.268 153.037 274.653 153.138 274.863 153.011C275.075 152.886 275.139 152.488 274.797 152.063Z" fill="#FFF9C4"/>
<path d="M277.447 149.134C276.937 148.924 275.922 148.763 275.922 148.763C275.922 148.763 276.543 149.557 277.007 149.896C277.471 150.237 277.856 150.141 277.978 149.928C278.101 149.716 277.956 149.342 277.447 149.134Z" fill="#FFF9C4"/>
<path d="M278.431 144.993C277.888 145.098 276.952 145.516 276.952 145.516C276.952 145.516 277.921 145.836 278.499 145.866C279.078 145.897 279.343 145.606 279.323 145.365C279.306 145.125 278.973 144.891 278.431 144.993Z" fill="#FFF9C4"/>
<path d="M276.445 141.159C276.049 141.535 275.497 142.384 275.497 142.384C275.497 142.384 276.488 142.137 276.989 141.854C277.49 141.572 277.552 141.187 277.403 140.995C277.252 140.804 276.841 140.782 276.445 141.159Z" fill="#FFF9C4"/>
<path d="M272.531 138.884C272.437 139.415 272.503 140.419 272.503 140.419C272.503 140.419 273.155 139.649 273.391 139.133C273.627 138.617 273.443 138.269 273.207 138.201C272.969 138.133 272.625 138.352 272.531 138.884Z" fill="#FFF9C4"/>
<path d="M268.167 139.124C268.401 139.614 269.04 140.402 269.04 140.402C269.04 140.402 269.127 139.407 269.018 138.851C268.909 138.295 268.559 138.112 268.322 138.188C268.088 138.262 267.933 138.634 268.167 139.124Z" fill="#FFF9C4"/>
<path d="M264.593 141.953C265.052 142.255 266.017 142.605 266.017 142.605C266.017 142.605 265.564 141.71 265.177 141.288C264.79 140.866 264.392 140.888 264.23 141.071C264.068 141.255 264.133 141.651 264.593 141.953Z" fill="#FFF9C4"/>
<path d="M263.112 145.866C263.665 145.851 264.658 145.591 264.658 145.591C264.658 145.591 263.757 145.118 263.193 144.993C262.626 144.871 262.316 145.114 262.294 145.354C262.272 145.595 262.558 145.879 263.112 145.866Z" fill="#FFF9C4"/>
<path d="M264.451 149.815C264.912 149.517 265.614 148.78 265.614 148.78C265.614 148.78 264.595 148.843 264.048 149.032C263.501 149.22 263.368 149.587 263.482 149.802C263.591 150.018 263.991 150.112 264.451 149.815Z" fill="#FFF9C4"/>
<path d="M267.43 152.413C267.623 151.908 267.747 150.908 267.747 150.908C267.747 150.908 266.962 151.547 266.632 152.013C266.303 152.479 266.417 152.853 266.636 152.962C266.859 153.072 267.238 152.919 267.43 152.413Z" fill="#FFF9C4"/>
<path d="M278.219 136.978C277.252 136.978 276.469 136.195 276.469 135.228C276.469 134.262 277.252 133.478 278.219 133.478C279.185 133.478 279.969 134.262 279.969 135.228C279.969 136.195 279.185 136.978 278.219 136.978Z" fill="white"/>
<path d="M282.812 142.228C282.208 142.228 281.719 141.739 281.719 141.135C281.719 140.531 282.208 140.041 282.812 140.041C283.417 140.041 283.906 140.531 283.906 141.135C283.906 141.739 283.417 142.228 282.812 142.228Z" fill="white"/>
<path d="M281.938 149.01C281.333 149.01 280.844 148.52 280.844 147.916C280.844 147.312 281.333 146.822 281.938 146.822C282.542 146.822 283.031 147.312 283.031 147.916C283.031 148.52 282.542 149.01 281.938 149.01Z" fill="white"/>
<path d="M281.5 157.103C280.654 157.103 279.969 156.418 279.969 155.572C279.969 154.726 280.654 154.041 281.5 154.041C282.346 154.041 283.031 154.726 283.031 155.572C283.031 156.418 282.346 157.103 281.5 157.103Z" fill="white"/>
<path d="M273.406 156.01C272.802 156.01 272.312 155.52 272.312 154.916C272.312 154.312 272.802 153.822 273.406 153.822C274.01 153.822 274.5 154.312 274.5 154.916C274.5 155.52 274.01 156.01 273.406 156.01Z" fill="white"/>
<path d="M267.719 157.978C267.115 157.978 266.625 157.489 266.625 156.885C266.625 156.281 267.115 155.791 267.719 155.791C268.323 155.791 268.812 156.281 268.812 156.885C268.812 157.489 268.323 157.978 267.719 157.978Z" fill="white"/>
<path d="M261.775 155.828C260.809 155.828 260.025 155.045 260.025 154.078C260.025 153.112 260.809 152.328 261.775 152.328C262.742 152.328 263.525 153.112 263.525 154.078C263.525 155.045 262.742 155.828 261.775 155.828Z" fill="white"/>
<path d="M259.625 149.228C259.021 149.228 258.531 148.739 258.531 148.135C258.531 147.531 259.021 147.041 259.625 147.041C260.229 147.041 260.719 147.531 260.719 148.135C260.719 148.739 260.229 149.228 259.625 149.228Z" fill="white"/>
<path d="M261.666 144.199C260.739 144.199 259.988 143.448 259.988 142.522C259.988 141.595 260.739 140.844 261.666 140.844C262.593 140.844 263.344 141.595 263.344 142.522C263.344 143.448 262.593 144.199 261.666 144.199Z" fill="white"/>
<path d="M263.781 136.76C263.177 136.76 262.688 136.27 262.688 135.666C262.688 135.062 263.177 134.572 263.781 134.572C264.385 134.572 264.875 135.062 264.875 135.666C264.875 136.27 264.385 136.76 263.781 136.76Z" fill="white"/>
<path opacity="0.2" d="M258.531 132.531V157.469H283.469V132.531H258.531ZM257.875 131.875H284.125V158.125H257.875V131.875Z" fill="#424242"/>
<path d="M304.491 103.473L298.305 97.3873C298.188 97.2687 298.281 97.0711 298.449 97.0797L304.738 97.3959L298.16 95.8491L305.044 92.0592L298.085 94.5875C297.925 94.6425 297.781 94.4775 297.858 94.3314L301.823 87.2055L296.894 93.7023C296.789 93.8347 296.572 93.7694 296.56 93.6009L296.158 84.8972C296.143 84.6703 295.801 84.6703 295.787 84.8972L295.376 93.5992C295.366 93.7659 295.149 93.8312 295.043 93.6989L290.156 87.2656L294.077 94.328C294.154 94.4741 294.008 94.6373 293.85 94.5841L290.067 93.2898C289.826 93.2073 289.677 93.5442 289.897 93.668L293.773 95.8439L287.191 97.3787L293.48 97.0745C293.649 97.0659 293.742 97.2636 293.625 97.3822L289.263 101.818L294.384 98.2415C294.522 98.1453 294.708 98.2639 294.677 98.4255L293.465 104.445C293.465 104.446 293.467 104.448 293.468 104.446L295.96 98.324C295.96 98.3223 295.964 98.3223 295.964 98.324L297.592 102.341C297.69 102.585 298.056 102.475 298.004 102.217L297.248 98.4272C297.215 98.2656 297.403 98.1487 297.54 98.245L304.491 103.473Z" fill="url(#paint4_radial)"/>
<path d="M296.163 101.385C296.112 100.964 295.833 100.222 295.833 100.222C295.833 100.222 295.519 100.943 295.459 101.385C295.4 101.827 295.617 102.047 295.811 102.047C296.005 102.047 296.215 101.806 296.163 101.385Z" fill="#FFF9C4"/>
<path d="M298.984 100.55C298.716 100.216 298.081 99.7266 298.081 99.7266C298.081 99.7266 298.198 100.503 298.382 100.909C298.568 101.315 298.87 101.394 299.035 101.294C299.202 101.196 299.252 100.883 298.984 100.55Z" fill="#FFF9C4"/>
<path d="M301.065 98.2484C300.665 98.0834 299.867 97.9563 299.867 97.9563C299.867 97.9563 300.355 98.5802 300.72 98.8466C301.084 99.1147 301.387 99.0391 301.483 98.8723C301.579 98.7056 301.466 98.4117 301.065 98.2484Z" fill="#FFF9C4"/>
<path d="M301.839 94.9948C301.412 95.0773 300.677 95.4056 300.677 95.4056C300.677 95.4056 301.438 95.6566 301.892 95.6806C302.347 95.7047 302.555 95.4761 302.54 95.287C302.526 95.098 302.265 94.9141 301.839 94.9948Z" fill="#FFF9C4"/>
<path d="M300.278 91.9819C299.967 92.2775 299.534 92.9444 299.534 92.9444C299.534 92.9444 300.312 92.7502 300.706 92.5284C301.1 92.3067 301.148 92.0042 301.031 91.853C300.912 91.7034 300.589 91.6863 300.278 91.9819Z" fill="#FFF9C4"/>
<path d="M297.203 90.1944C297.129 90.612 297.181 91.4009 297.181 91.4009C297.181 91.4009 297.693 90.7959 297.879 90.3903C298.064 89.9847 297.92 89.7114 297.734 89.6581C297.547 89.6049 297.277 89.7767 297.203 90.1944Z" fill="#FFF9C4"/>
<path d="M293.774 90.3834C293.958 90.7684 294.46 91.3872 294.46 91.3872C294.46 91.3872 294.529 90.6052 294.443 90.1686C294.357 89.732 294.082 89.5877 293.896 89.6478C293.712 89.7063 293.59 89.9984 293.774 90.3834Z" fill="#FFF9C4"/>
<path d="M290.966 92.6058C291.327 92.843 292.085 93.118 292.085 93.118C292.085 93.118 291.729 92.415 291.425 92.0833C291.12 91.7516 290.808 91.7688 290.68 91.9131C290.553 92.0575 290.605 92.3686 290.966 92.6058Z" fill="#FFF9C4"/>
<path d="M289.802 95.6806C290.237 95.6686 291.017 95.4641 291.017 95.4641C291.017 95.4641 290.309 95.0928 289.866 94.9948C289.421 94.8986 289.177 95.0894 289.159 95.2784C289.142 95.4675 289.367 95.6909 289.802 95.6806Z" fill="#FFF9C4"/>
<path d="M290.854 98.783C291.217 98.5492 291.768 97.97 291.768 97.97C291.768 97.97 290.967 98.0198 290.538 98.1677C290.108 98.3155 290.003 98.6042 290.093 98.7727C290.179 98.9428 290.493 99.0167 290.854 98.783Z" fill="#FFF9C4"/>
<path d="M293.195 100.825C293.346 100.428 293.444 99.6423 293.444 99.6423C293.444 99.6423 292.827 100.144 292.568 100.51C292.31 100.876 292.399 101.17 292.571 101.256C292.746 101.342 293.044 101.222 293.195 100.825Z" fill="#FFF9C4"/>
<path d="M301.672 88.6974C300.912 88.6974 300.297 88.0817 300.297 87.3224C300.297 86.563 300.912 85.9474 301.672 85.9474C302.431 85.9474 303.047 86.563 303.047 87.3224C303.047 88.0817 302.431 88.6974 301.672 88.6974Z" fill="white"/>
<path d="M305.281 92.8223C304.807 92.8223 304.422 92.4376 304.422 91.963C304.422 91.4883 304.807 91.1036 305.281 91.1036C305.756 91.1036 306.141 91.4883 306.141 91.963C306.141 92.4376 305.756 92.8223 305.281 92.8223Z" fill="white"/>
<path d="M304.594 98.1505C304.119 98.1505 303.734 97.7657 303.734 97.2911C303.734 96.8165 304.119 96.4317 304.594 96.4317C305.068 96.4317 305.453 96.8165 305.453 97.2911C305.453 97.7657 305.068 98.1505 304.594 98.1505Z" fill="white"/>
<path d="M304.25 104.51C303.586 104.51 303.047 103.971 303.047 103.307C303.047 102.642 303.586 102.104 304.25 102.104C304.914 102.104 305.453 102.642 305.453 103.307C305.453 103.971 304.914 104.51 304.25 104.51Z" fill="white"/>
<path d="M297.891 103.65C297.416 103.65 297.031 103.266 297.031 102.791C297.031 102.316 297.416 101.932 297.891 101.932C298.365 101.932 298.75 102.316 298.75 102.791C298.75 103.266 298.365 103.65 297.891 103.65Z" fill="white"/>
<path d="M293.422 105.197C292.947 105.197 292.562 104.813 292.562 104.338C292.562 103.863 292.947 103.479 293.422 103.479C293.896 103.479 294.281 103.863 294.281 104.338C294.281 104.813 293.896 105.197 293.422 105.197Z" fill="white"/>
<path d="M288.752 103.508C287.993 103.508 287.377 102.892 287.377 102.133C287.377 101.373 287.993 100.758 288.752 100.758C289.511 100.758 290.127 101.373 290.127 102.133C290.127 102.892 289.511 103.508 288.752 103.508Z" fill="white"/>
<path d="M287.062 98.3223C286.588 98.3223 286.203 97.9376 286.203 97.463C286.203 96.9883 286.588 96.6036 287.062 96.6036C287.537 96.6036 287.922 96.9883 287.922 97.463C287.922 97.9376 287.537 98.3223 287.062 98.3223Z" fill="white"/>
<path d="M288.666 94.3709C287.938 94.3709 287.348 93.7807 287.348 93.0527C287.348 92.3246 287.938 91.7344 288.666 91.7344C289.394 91.7344 289.984 92.3246 289.984 93.0527C289.984 93.7807 289.394 94.3709 288.666 94.3709Z" fill="white"/>
<path d="M290.328 88.5255C289.854 88.5255 289.469 88.1407 289.469 87.6661C289.469 87.1915 289.854 86.8067 290.328 86.8067C290.803 86.8067 291.188 87.1915 291.188 87.6661C291.188 88.1407 290.803 88.5255 290.328 88.5255Z" fill="white"/>
<path opacity="0.2" d="M286.203 85.2031V104.797H305.797V85.2031H286.203ZM285.688 84.6875H306.312V105.312H285.688V84.6875Z" fill="#424242"/>
<path d="M148.491 232.473L142.305 226.387C142.188 226.269 142.281 226.071 142.449 226.08L148.738 226.396L142.16 224.849L149.044 221.059L142.085 223.587C141.925 223.642 141.781 223.477 141.858 223.331L145.823 216.205L140.894 222.702C140.789 222.835 140.572 222.769 140.56 222.601L140.158 213.897C140.143 213.67 139.801 213.67 139.787 213.897L139.376 222.599C139.366 222.766 139.149 222.831 139.043 222.699L134.156 216.266L138.077 223.328C138.154 223.474 138.008 223.637 137.85 223.584L134.067 222.29C133.826 222.207 133.677 222.544 133.897 222.668L137.773 224.844L131.191 226.379L137.48 226.075C137.649 226.066 137.742 226.264 137.625 226.382L133.263 230.818L138.384 227.242C138.522 227.145 138.708 227.264 138.677 227.425L137.465 233.445C137.465 233.446 137.467 233.448 137.468 233.446L139.96 227.324C139.96 227.322 139.964 227.322 139.964 227.324L141.592 231.341C141.69 231.585 142.056 231.475 142.004 231.217L141.248 227.427C141.215 227.266 141.403 227.149 141.54 227.245L148.491 232.473Z" fill="url(#paint5_radial)"/>
<path d="M140.163 230.385C140.112 229.964 139.833 229.222 139.833 229.222C139.833 229.222 139.519 229.943 139.459 230.385C139.4 230.827 139.617 231.047 139.811 231.047C140.005 231.047 140.215 230.806 140.163 230.385Z" fill="#0E6244"/>
<path d="M142.984 229.55C142.716 229.216 142.081 228.727 142.081 228.727C142.081 228.727 142.198 229.503 142.382 229.909C142.568 230.315 142.87 230.394 143.035 230.294C143.202 230.196 143.252 229.883 142.984 229.55Z" fill="#0E6244"/>
<path d="M145.065 227.248C144.665 227.083 143.867 226.956 143.867 226.956C143.867 226.956 144.355 227.58 144.72 227.847C145.084 228.115 145.387 228.039 145.483 227.872C145.579 227.706 145.466 227.412 145.065 227.248Z" fill="#0E6244"/>
<path d="M145.839 223.995C145.412 224.077 144.677 224.406 144.677 224.406C144.677 224.406 145.438 224.657 145.892 224.681C146.347 224.705 146.555 224.476 146.54 224.287C146.526 224.098 146.265 223.914 145.839 223.995Z" fill="#0E6244"/>
<path d="M144.278 220.982C143.967 221.277 143.534 221.944 143.534 221.944C143.534 221.944 144.312 221.75 144.706 221.528C145.1 221.307 145.148 221.004 145.031 220.853C144.912 220.703 144.589 220.686 144.278 220.982Z" fill="#0E6244"/>
<path d="M141.203 219.194C141.129 219.612 141.181 220.401 141.181 220.401C141.181 220.401 141.693 219.796 141.879 219.39C142.064 218.985 141.92 218.711 141.734 218.658C141.547 218.605 141.277 218.777 141.203 219.194Z" fill="#0E6244"/>
<path d="M137.774 219.383C137.958 219.768 138.46 220.387 138.46 220.387C138.46 220.387 138.529 219.605 138.443 219.169C138.357 218.732 138.082 218.588 137.896 218.648C137.712 218.706 137.59 218.998 137.774 219.383Z" fill="#0E6244"/>
<path d="M134.966 221.606C135.327 221.843 136.085 222.118 136.085 222.118C136.085 222.118 135.729 221.415 135.425 221.083C135.12 220.752 134.808 220.769 134.68 220.913C134.553 221.058 134.605 221.369 134.966 221.606Z" fill="#0E6244"/>
<path d="M133.802 224.681C134.237 224.669 135.017 224.464 135.017 224.464C135.017 224.464 134.309 224.093 133.866 223.995C133.421 223.899 133.177 224.089 133.159 224.278C133.142 224.467 133.367 224.691 133.802 224.681Z" fill="#0E6244"/>
<path d="M134.854 227.783C135.217 227.549 135.768 226.97 135.768 226.97C135.768 226.97 134.967 227.02 134.538 227.168C134.108 227.315 134.003 227.604 134.093 227.773C134.179 227.943 134.493 228.017 134.854 227.783Z" fill="#0E6244"/>
<path d="M137.195 229.825C137.346 229.428 137.444 228.642 137.444 228.642C137.444 228.642 136.827 229.144 136.568 229.51C136.31 229.876 136.399 230.17 136.571 230.256C136.746 230.342 137.044 230.222 137.195 229.825Z" fill="#0E6244"/>
<path d="M145.672 217.697C144.912 217.697 144.297 217.082 144.297 216.322C144.297 215.563 144.912 214.947 145.672 214.947C146.431 214.947 147.047 215.563 147.047 216.322C147.047 217.082 146.431 217.697 145.672 217.697Z" fill="white"/>
<path d="M149.281 221.822C148.807 221.822 148.422 221.438 148.422 220.963C148.422 220.488 148.807 220.104 149.281 220.104C149.756 220.104 150.141 220.488 150.141 220.963C150.141 221.438 149.756 221.822 149.281 221.822Z" fill="white"/>
<path d="M148.594 227.15C148.119 227.15 147.734 226.766 147.734 226.291C147.734 225.816 148.119 225.432 148.594 225.432C149.068 225.432 149.453 225.816 149.453 226.291C149.453 226.766 149.068 227.15 148.594 227.15Z" fill="white"/>
<path d="M148.25 233.51C147.586 233.51 147.047 232.971 147.047 232.307C147.047 231.642 147.586 231.104 148.25 231.104C148.914 231.104 149.453 231.642 149.453 232.307C149.453 232.971 148.914 233.51 148.25 233.51Z" fill="white"/>
<path d="M141.891 232.65C141.416 232.65 141.031 232.266 141.031 231.791C141.031 231.316 141.416 230.932 141.891 230.932C142.365 230.932 142.75 231.316 142.75 231.791C142.75 232.266 142.365 232.65 141.891 232.65Z" fill="white"/>
<path d="M137.422 234.197C136.947 234.197 136.562 233.813 136.562 233.338C136.562 232.863 136.947 232.479 137.422 232.479C137.896 232.479 138.281 232.863 138.281 233.338C138.281 233.813 137.896 234.197 137.422 234.197Z" fill="white"/>
<path d="M132.752 232.508C131.993 232.508 131.377 231.892 131.377 231.133C131.377 230.373 131.993 229.758 132.752 229.758C133.511 229.758 134.127 230.373 134.127 231.133C134.127 231.892 133.511 232.508 132.752 232.508Z" fill="white"/>
<path d="M131.062 227.322C130.588 227.322 130.203 226.938 130.203 226.463C130.203 225.988 130.588 225.604 131.062 225.604C131.537 225.604 131.922 225.988 131.922 226.463C131.922 226.938 131.537 227.322 131.062 227.322Z" fill="white"/>
<path d="M132.666 223.371C131.938 223.371 131.348 222.781 131.348 222.053C131.348 221.325 131.938 220.734 132.666 220.734C133.394 220.734 133.984 221.325 133.984 222.053C133.984 222.781 133.394 223.371 132.666 223.371Z" fill="white"/>
<path d="M134.328 217.525C133.854 217.525 133.469 217.141 133.469 216.666C133.469 216.191 133.854 215.807 134.328 215.807C134.803 215.807 135.188 216.191 135.188 216.666C135.188 217.141 134.803 217.525 134.328 217.525Z" fill="white"/>
<path opacity="0.2" d="M130.203 214.203V233.797H149.797V214.203H130.203ZM129.688 213.688H150.312V234.312H129.688V213.688Z" fill="#424242"/>
<path d="M68.0078 71.9805L58.1668 62.298C57.9809 62.1094 58.1285 61.7949 58.3965 61.8086L68.4016 62.3117L57.9371 59.8508L68.8883 53.8215L57.8168 57.8437C57.5625 57.9312 57.3328 57.6687 57.4559 57.4363L63.7641 46.0996L55.9219 56.4355C55.7551 56.6461 55.4106 56.5422 55.3914 56.2742L54.7516 42.4273C54.727 42.0664 54.1828 42.0664 54.161 42.4273L53.5074 56.2715C53.491 56.5367 53.1465 56.6406 52.977 56.4301L45.2031 46.1953L51.4403 57.4308C51.5633 57.6633 51.3309 57.923 51.0793 57.8383L45.061 55.7793C44.6782 55.648 44.4403 56.184 44.7903 56.3808L50.9563 59.8426L40.4864 62.2844L50.4914 61.8004C50.7594 61.7867 50.9071 62.1012 50.7211 62.2898L43.7813 69.3473L51.9297 63.657C52.1485 63.5039 52.4438 63.6926 52.3946 63.9496L50.4668 73.5254C50.4668 73.5281 50.4696 73.5308 50.4723 73.5281L54.4371 63.7883C54.4371 63.7855 54.4426 63.7855 54.4426 63.7883L57.0321 70.1785C57.1879 70.5668 57.7703 70.3918 57.6883 69.9816L56.4852 63.9523C56.4332 63.6953 56.7313 63.5094 56.95 63.6625L68.0078 71.9805Z" fill="url(#paint6_radial)"/>
<path d="M54.7597 68.6582C54.6777 67.9883 54.2347 66.807 54.2347 66.807C54.2347 66.807 53.7343 67.9555 53.6386 68.6582C53.5457 69.3609 53.8902 69.7109 54.1992 69.7109C54.5082 69.7109 54.8418 69.3281 54.7597 68.6582Z" fill="#FFC4D9"/>
<path d="M59.2469 67.3293C58.8204 66.7988 57.8114 66.0195 57.8114 66.0195C57.8114 66.0195 57.9973 67.2555 58.2899 67.9008C58.5852 68.5461 59.0665 68.6719 59.329 68.5133C59.5942 68.3574 59.6735 67.8598 59.2469 67.3293Z" fill="#FFC4D9"/>
<path d="M62.5582 63.668C61.921 63.4055 60.6523 63.2031 60.6523 63.2031C60.6523 63.2031 61.4289 64.1957 62.0085 64.6195C62.5882 65.0461 63.0695 64.9258 63.2226 64.6605C63.3757 64.3953 63.1953 63.9277 62.5582 63.668Z" fill="#FFC4D9"/>
<path d="M63.7887 58.4918C63.1106 58.6231 61.9402 59.1453 61.9402 59.1453C61.9402 59.1453 63.1516 59.5445 63.8734 59.5828C64.5981 59.6211 64.9289 59.2574 64.9043 58.9566C64.8824 58.6559 64.4668 58.3633 63.7887 58.4918Z" fill="#FFC4D9"/>
<path d="M61.3058 53.6984C60.8109 54.1687 60.1219 55.2297 60.1219 55.2297C60.1219 55.2297 61.3605 54.9207 61.9867 54.568C62.6129 54.2152 62.6894 53.734 62.5035 53.4934C62.3148 53.2555 61.8008 53.2281 61.3058 53.6984Z" fill="#FFC4D9"/>
<path d="M56.4141 50.8547C56.2965 51.5192 56.3785 52.7742 56.3785 52.7742C56.3785 52.7742 57.1934 51.8117 57.4887 51.1664C57.784 50.5211 57.5543 50.0863 57.259 50.0016C56.9609 49.9168 56.5317 50.1903 56.4141 50.8547Z" fill="#FFC4D9"/>
<path d="M50.959 51.1555C51.2516 51.768 52.05 52.7523 52.05 52.7523C52.05 52.7523 52.1594 51.5082 52.0227 50.8137C51.8859 50.1191 51.4484 49.8894 51.1531 49.9851C50.8606 50.0781 50.6664 50.543 50.959 51.1555Z" fill="#FFC4D9"/>
<path d="M46.491 54.691C47.0653 55.0684 48.2711 55.5059 48.2711 55.5059C48.2711 55.5059 47.7051 54.3875 47.2211 53.8598C46.7371 53.332 46.2395 53.3594 46.0371 53.5891C45.8348 53.8188 45.9168 54.3137 46.491 54.691Z" fill="#FFC4D9"/>
<path d="M44.6399 59.5828C45.3317 59.5637 46.5731 59.2383 46.5731 59.2383C46.5731 59.2383 45.4465 58.6476 44.741 58.4918C44.0328 58.3387 43.6445 58.6422 43.6172 58.943C43.5899 59.2437 43.9481 59.5992 44.6399 59.5828Z" fill="#FFC4D9"/>
<path d="M46.3133 64.5184C46.8902 64.1465 47.7679 63.225 47.7679 63.225C47.7679 63.225 46.4937 63.3043 45.8101 63.5395C45.1265 63.7746 44.9597 64.234 45.1019 64.502C45.2386 64.7727 45.739 64.8902 46.3133 64.5184Z" fill="#FFC4D9"/>
<path d="M50.0375 67.7668C50.2781 67.1352 50.434 65.8855 50.434 65.8855C50.434 65.8855 49.4523 66.684 49.0394 67.2664C48.6293 67.8488 48.7715 68.3164 49.0449 68.4531C49.3238 68.5898 49.7969 68.3984 50.0375 67.7668Z" fill="#FFC4D9"/>
<path d="M63.5234 48.4731C62.3153 48.4731 61.3359 47.4937 61.3359 46.2856C61.3359 45.0774 62.3153 44.0981 63.5234 44.0981C64.7316 44.0981 65.7109 45.0774 65.7109 46.2856C65.7109 47.4937 64.7316 48.4731 63.5234 48.4731Z" fill="white"/>
<path d="M69.2656 55.0356C68.5105 55.0356 67.8984 54.4234 67.8984 53.6684C67.8984 52.9133 68.5105 52.3012 69.2656 52.3012C70.0207 52.3012 70.6328 52.9133 70.6328 53.6684C70.6328 54.4234 70.0207 55.0356 69.2656 55.0356Z" fill="white"/>
<path d="M68.1719 63.5121C67.4168 63.5121 66.8047 62.9 66.8047 62.1449C66.8047 61.3899 67.4168 60.7777 68.1719 60.7777C68.927 60.7777 69.5391 61.3899 69.5391 62.1449C69.5391 62.9 68.927 63.5121 68.1719 63.5121Z" fill="white"/>
<path d="M67.625 73.6293C66.5679 73.6293 65.7109 72.7723 65.7109 71.7152C65.7109 70.6581 66.5679 69.8012 67.625 69.8012C68.6821 69.8012 69.5391 70.6581 69.5391 71.7152C69.5391 72.7723 68.6821 73.6293 67.625 73.6293Z" fill="white"/>
<path d="M57.5078 72.2621C56.7527 72.2621 56.1406 71.65 56.1406 70.8949C56.1406 70.1399 56.7527 69.5277 57.5078 69.5277C58.2629 69.5277 58.875 70.1399 58.875 70.8949C58.875 71.65 58.2629 72.2621 57.5078 72.2621Z" fill="white"/>
<path d="M50.3984 74.7231C49.6434 74.7231 49.0312 74.1109 49.0312 73.3559C49.0312 72.6008 49.6434 71.9887 50.3984 71.9887C51.1535 71.9887 51.7656 72.6008 51.7656 73.3559C51.7656 74.1109 51.1535 74.7231 50.3984 74.7231Z" fill="white"/>
<path d="M42.9691 72.0352C41.761 72.0352 40.7816 71.0558 40.7816 69.8477C40.7816 68.6395 41.761 67.6602 42.9691 67.6602C44.1772 67.6602 45.1566 68.6395 45.1566 69.8477C45.1566 71.0558 44.1772 72.0352 42.9691 72.0352Z" fill="white"/>
<path d="M40.2812 63.7856C39.5262 63.7856 38.9141 63.1734 38.9141 62.4184C38.9141 61.6633 39.5262 61.0512 40.2812 61.0512C41.0363 61.0512 41.6484 61.6633 41.6484 62.4184C41.6484 63.1734 41.0363 63.7856 40.2812 63.7856Z" fill="white"/>
<path d="M42.8324 57.4992C41.6741 57.4992 40.7352 56.5602 40.7352 55.402C40.7352 54.2437 41.6741 53.3047 42.8324 53.3047C43.9907 53.3047 44.9297 54.2437 44.9297 55.402C44.9297 56.5602 43.9907 57.4992 42.8324 57.4992Z" fill="white"/>
<path d="M45.4766 48.1996C44.7215 48.1996 44.1094 47.5875 44.1094 46.8324C44.1094 46.0774 44.7215 45.4652 45.4766 45.4652C46.2316 45.4652 46.8438 46.0774 46.8438 46.8324C46.8438 47.5875 46.2316 48.1996 45.4766 48.1996Z" fill="white"/>
<path opacity="0.2" d="M38.9141 42.9141V74.0859H70.0859V42.9141H38.9141ZM38.0938 42.0938H70.9062V74.9062H38.0938V42.0938Z" fill="#424242"/>
<path d="M193.008 283.98L183.167 274.298C182.981 274.109 183.129 273.795 183.397 273.809L193.402 274.312L182.937 271.851L193.888 265.821L182.817 269.844C182.563 269.931 182.333 269.669 182.456 269.436L188.764 258.1L180.922 268.436C180.755 268.646 180.411 268.542 180.391 268.274L179.752 254.427C179.727 254.066 179.183 254.066 179.161 254.427L178.507 268.271C178.491 268.537 178.147 268.641 177.977 268.43L170.203 258.195L176.44 269.431C176.563 269.663 176.331 269.923 176.079 269.838L170.061 267.779C169.678 267.648 169.44 268.184 169.79 268.381L175.956 271.843L165.486 274.284L175.491 273.8C175.759 273.787 175.907 274.101 175.721 274.29L168.781 281.347L176.93 275.657C177.148 275.504 177.444 275.693 177.395 275.95L175.467 285.525C175.467 285.528 175.47 285.531 175.472 285.528L179.437 275.788C179.437 275.786 179.443 275.786 179.443 275.788L182.032 282.178C182.188 282.567 182.77 282.392 182.688 281.982L181.485 275.952C181.433 275.695 181.731 275.509 181.95 275.662L193.008 283.98Z" fill="url(#paint7_radial)"/>
<path d="M179.76 280.658C179.678 279.988 179.235 278.807 179.235 278.807C179.235 278.807 178.734 279.955 178.639 280.658C178.546 281.361 178.89 281.711 179.199 281.711C179.508 281.711 179.842 281.328 179.76 280.658Z" fill="#FFC4D9"/>
<path d="M184.247 279.329C183.82 278.799 182.811 278.02 182.811 278.02C182.811 278.02 182.997 279.255 183.29 279.901C183.585 280.546 184.066 280.672 184.329 280.513C184.594 280.357 184.673 279.86 184.247 279.329Z" fill="#FFC4D9"/>
<path d="M187.558 275.668C186.921 275.405 185.652 275.203 185.652 275.203C185.652 275.203 186.429 276.196 187.009 276.62C187.588 277.046 188.069 276.926 188.223 276.661C188.376 276.395 188.195 275.928 187.558 275.668Z" fill="#FFC4D9"/>
<path d="M188.789 270.492C188.111 270.623 186.94 271.145 186.94 271.145C186.94 271.145 188.152 271.545 188.873 271.583C189.598 271.621 189.929 271.257 189.904 270.957C189.882 270.656 189.467 270.363 188.789 270.492Z" fill="#FFC4D9"/>
<path d="M186.306 265.698C185.811 266.169 185.122 267.23 185.122 267.23C185.122 267.23 186.361 266.921 186.987 266.568C187.613 266.215 187.689 265.734 187.503 265.493C187.315 265.255 186.801 265.228 186.306 265.698Z" fill="#FFC4D9"/>
<path d="M181.414 262.855C181.296 263.519 181.379 264.774 181.379 264.774C181.379 264.774 182.193 263.812 182.489 263.166C182.784 262.521 182.554 262.086 182.259 262.002C181.961 261.917 181.532 262.19 181.414 262.855Z" fill="#FFC4D9"/>
<path d="M175.959 263.155C176.252 263.768 177.05 264.752 177.05 264.752C177.05 264.752 177.159 263.508 177.023 262.814C176.886 262.119 176.448 261.889 176.153 261.985C175.861 262.078 175.666 262.543 175.959 263.155Z" fill="#FFC4D9"/>
<path d="M171.491 266.691C172.065 267.068 173.271 267.506 173.271 267.506C173.271 267.506 172.705 266.388 172.221 265.86C171.737 265.332 171.239 265.359 171.037 265.589C170.835 265.819 170.917 266.314 171.491 266.691Z" fill="#FFC4D9"/>
<path d="M169.64 271.583C170.332 271.564 171.573 271.238 171.573 271.238C171.573 271.238 170.446 270.648 169.741 270.492C169.033 270.339 168.645 270.642 168.617 270.943C168.59 271.244 168.948 271.599 169.64 271.583Z" fill="#FFC4D9"/>
<path d="M171.313 276.518C171.89 276.146 172.768 275.225 172.768 275.225C172.768 275.225 171.494 275.304 170.81 275.539C170.127 275.775 169.96 276.234 170.102 276.502C170.239 276.773 170.739 276.89 171.313 276.518Z" fill="#FFC4D9"/>
<path d="M175.037 279.767C175.278 279.135 175.434 277.886 175.434 277.886C175.434 277.886 174.452 278.684 174.039 279.266C173.629 279.849 173.771 280.316 174.045 280.453C174.324 280.59 174.797 280.398 175.037 279.767Z" fill="#FFC4D9"/>
<path d="M188.523 260.473C187.315 260.473 186.336 259.494 186.336 258.286C186.336 257.077 187.315 256.098 188.523 256.098C189.732 256.098 190.711 257.077 190.711 258.286C190.711 259.494 189.732 260.473 188.523 260.473Z" fill="white"/>
<path d="M194.266 267.036C193.511 267.036 192.898 266.423 192.898 265.668C192.898 264.913 193.511 264.301 194.266 264.301C195.021 264.301 195.633 264.913 195.633 265.668C195.633 266.423 195.021 267.036 194.266 267.036Z" fill="white"/>
<path d="M193.172 275.512C192.417 275.512 191.805 274.9 191.805 274.145C191.805 273.39 192.417 272.778 193.172 272.778C193.927 272.778 194.539 273.39 194.539 274.145C194.539 274.9 193.927 275.512 193.172 275.512Z" fill="white"/>
<path d="M192.625 285.629C191.568 285.629 190.711 284.772 190.711 283.715C190.711 282.658 191.568 281.801 192.625 281.801C193.682 281.801 194.539 282.658 194.539 283.715C194.539 284.772 193.682 285.629 192.625 285.629Z" fill="white"/>
<path d="M182.508 284.262C181.753 284.262 181.141 283.65 181.141 282.895C181.141 282.14 181.753 281.528 182.508 281.528C183.263 281.528 183.875 282.14 183.875 282.895C183.875 283.65 183.263 284.262 182.508 284.262Z" fill="white"/>
<path d="M175.398 286.723C174.643 286.723 174.031 286.111 174.031 285.356C174.031 284.601 174.643 283.989 175.398 283.989C176.154 283.989 176.766 284.601 176.766 285.356C176.766 286.111 176.154 286.723 175.398 286.723Z" fill="white"/>
<path d="M167.969 284.035C166.761 284.035 165.782 283.056 165.782 281.848C165.782 280.64 166.761 279.66 167.969 279.66C169.177 279.66 170.157 280.64 170.157 281.848C170.157 283.056 169.177 284.035 167.969 284.035Z" fill="white"/>
<path d="M165.281 275.786C164.526 275.786 163.914 275.173 163.914 274.418C163.914 273.663 164.526 273.051 165.281 273.051C166.036 273.051 166.648 273.663 166.648 274.418C166.648 275.173 166.036 275.786 165.281 275.786Z" fill="white"/>
<path d="M167.832 269.499C166.674 269.499 165.735 268.56 165.735 267.402C165.735 266.244 166.674 265.305 167.832 265.305C168.991 265.305 169.93 266.244 169.93 267.402C169.93 268.56 168.991 269.499 167.832 269.499Z" fill="white"/>
<path d="M170.477 260.2C169.721 260.2 169.109 259.588 169.109 258.832C169.109 258.077 169.721 257.465 170.477 257.465C171.232 257.465 171.844 258.077 171.844 258.832C171.844 259.588 171.232 260.2 170.477 260.2Z" fill="white"/>
<path opacity="0.2" d="M163.914 254.914V286.086H195.086V254.914H163.914ZM163.094 254.094H195.906V286.906H163.094V254.094Z" fill="#424242"/>
<defs>
<linearGradient id="paint0_linear" x1="14" y1="51" x2="433" y2="315.5" gradientUnits="userSpaceOnUse">
<stop offset="0.166667" stop-color="#3DCDC5"/>
<stop offset="0.440496" stop-color="#3CC4C3" stop-opacity="0.01"/>
<stop offset="0.546875" stop-color="#2B29A4" stop-opacity="0.38"/>
<stop offset="0.828125" stop-color="#9350E9" stop-opacity="0.96"/>
</linearGradient>
<linearGradient id="paint1_linear" x1="274" y1="252" x2="39" y2="44.5" gradientUnits="userSpaceOnUse">
<stop offset="0.0104167" stop-color="#4FC5EA" stop-opacity="0.88"/>
<stop offset="0.59375" stop-color="#89D8F1" stop-opacity="0.73"/>
<stop offset="1" stop-color="white" stop-opacity="0"/>
</linearGradient>
<linearGradient id="paint2_linear" x1="134" y1="13.5" x2="303" y2="434.5" gradientUnits="userSpaceOnUse">
<stop stop-color="white" stop-opacity="0.83"/>
<stop offset="1" stop-color="white" stop-opacity="0.28"/>
</linearGradient>
<radialGradient id="paint3_radial" cx="0" cy="0" r="1" gradientUnits="userSpaceOnUse" gradientTransform="translate(271.148 144.474) scale(12.1253 11.8457)">
<stop offset="0.188" stop-color="#C8FF9D"/>
<stop offset="1" stop-color="#A158FF"/>
</radialGradient>
<radialGradient id="paint4_radial" cx="0" cy="0" r="1" gradientUnits="userSpaceOnUse" gradientTransform="translate(296.116 94.5866) scale(9.52703 9.30737)">
<stop offset="0.188" stop-color="#FFF59D"/>
<stop offset="1" stop-color="#FFEE58"/>
</radialGradient>
<radialGradient id="paint5_radial" cx="0" cy="0" r="1" gradientUnits="userSpaceOnUse" gradientTransform="translate(140.116 223.587) scale(9.52703 9.30737)">
<stop offset="0.188" stop-color="#DA9DFF"/>
<stop offset="1" stop-color="#FF5858"/>
</radialGradient>
<radialGradient id="paint6_radial" cx="0" cy="0" r="1" gradientUnits="userSpaceOnUse" gradientTransform="translate(54.6846 57.8424) scale(15.1566 14.8072)">
<stop offset="0.188" stop-color="#FF9D9D"/>
<stop offset="1" stop-color="#FFEE58"/>
</radialGradient>
<radialGradient id="paint7_radial" cx="0" cy="0" r="1" gradientUnits="userSpaceOnUse" gradientTransform="translate(179.685 269.842) scale(15.1566 14.8072)">
<stop stop-color="#FFE660" stop-opacity="0.73"/>
<stop offset="0.947917" stop-color="#FF9D9D"/>
<stop offset="1" stop-color="#FFEE58"/>
</radialGradient>
</defs>
</svg>
