<svg width="95" height="95" viewBox="0 0 95 95" fill="none" xmlns="http://www.w3.org/2000/svg">
<path d="M52.4583 91.0417C52.4583 88.8567 50.685 87.0833 48.5 87.0833C46.315 87.0833 44.5417 88.8567 44.5417 91.0417C44.5417 93.2267 46.315 95 48.5 95C50.685 95 52.4583 93.2267 52.4583 91.0417ZM68.6242 87.7404C68.6242 85.8285 67.0685 84.2769 65.1606 84.2769C63.2527 84.2769 61.6971 85.8285 61.6971 87.7404C61.6971 89.6523 63.2527 91.204 65.1606 91.204C67.0685 91.204 68.6242 89.6523 68.6242 87.7404ZM82.2527 78.2919C82.2527 76.6531 80.9227 75.3231 79.284 75.3231C77.6452 75.3231 76.3152 76.6531 76.3152 78.2919C76.3152 79.9306 77.6452 81.2606 79.284 81.2606C80.9227 81.2606 82.2527 79.9306 82.2527 78.2919ZM91.5271 64.1685C91.5271 62.6208 90.2723 61.366 88.7246 61.366C87.1769 61.366 85.9221 62.6208 85.9221 64.1685C85.9221 65.7163 87.1769 66.971 88.7246 66.971C90.2723 66.971 91.5271 65.7163 91.5271 64.1685ZM94.6779 47.5079C94.6779 46.0512 93.4983 44.8677 92.0417 44.8677C90.585 44.8677 89.4054 46.0473 89.4054 47.5079C89.4054 48.9685 90.585 50.1481 92.0417 50.1481C93.4983 50.1481 94.6779 48.9685 94.6779 47.5079ZM91.1985 30.8473C91.1985 29.4817 90.0902 28.3733 88.7246 28.3733C87.359 28.3733 86.2506 29.4817 86.2506 30.8473C86.2506 32.2129 87.359 33.3213 88.7246 33.3213C90.0902 33.3213 91.1985 32.2169 91.1985 30.8473ZM81.5917 16.724C81.5917 15.4494 80.5546 14.4162 79.284 14.4162C78.0133 14.4162 76.9762 15.4494 76.9762 16.724C76.9762 17.9985 78.0133 19.0317 79.284 19.0317C80.5546 19.0317 81.5917 17.9985 81.5917 16.724ZM67.306 7.28333C67.306 6.09979 66.3481 5.13792 65.1646 5.13792C63.981 5.13792 63.0231 6.09583 63.0231 7.28333C63.0231 8.47083 63.981 9.42875 65.1646 9.42875C66.3481 9.42875 67.306 8.46687 67.306 7.28333V7.28333ZM52.4583 3.95833C52.4583 1.77333 50.685 0 48.5 0C46.315 0 44.5417 1.77333 44.5417 3.95833C44.5417 6.14333 46.315 7.91667 48.5 7.91667C50.685 7.91667 52.4583 6.14333 52.4583 3.95833V3.95833ZM35.7937 7.27542C35.7937 5.09042 34.0204 3.31708 31.8354 3.31708C29.6504 3.31708 27.8771 5.09042 27.8771 7.27542C27.8771 9.46042 29.6504 11.2338 31.8354 11.2338C34.0204 11.2338 35.7937 9.46042 35.7937 7.27542V7.27542ZM21.6665 16.716C21.6665 14.531 19.8931 12.7577 17.7081 12.7577C15.5231 12.7577 13.7498 14.531 13.7498 16.716C13.7498 18.901 15.5231 20.6744 17.7081 20.6744C19.8931 20.6744 21.6665 18.901 21.6665 16.716ZM12.2298 30.8473C12.2298 28.6623 10.4565 26.889 8.27146 26.889C6.08646 26.889 4.31312 28.6623 4.31312 30.8473C4.31312 33.0323 6.08646 34.8056 8.27146 34.8056C10.4565 34.8056 12.2298 33.0363 12.2298 30.8473ZM8.91667 47.5079C8.91667 45.3229 7.14333 43.5496 4.95833 43.5496C2.77333 43.5496 1 45.3229 1 47.5079C1 49.6929 2.77333 51.4662 4.95833 51.4662C7.14333 51.4662 8.91667 49.6929 8.91667 47.5079ZM12.2298 64.1685C12.2298 61.9835 10.4565 60.2102 8.27146 60.2102C6.08646 60.2102 4.31312 61.9835 4.31312 64.1685C4.31312 66.3535 6.08646 68.1269 8.27146 68.1269C10.4565 68.1269 12.2298 66.3575 12.2298 64.1685ZM21.6665 78.2958C21.6665 76.1108 19.8931 74.3375 17.7081 74.3375C15.5231 74.3375 13.7498 76.1108 13.7498 78.2958C13.7498 80.4808 15.5231 82.2542 17.7081 82.2542C19.8931 82.2542 21.6665 80.4848 21.6665 78.2958ZM35.8017 87.7285C35.8017 85.5435 34.0283 83.7702 31.8433 83.7702C29.6583 83.7702 27.885 85.5435 27.885 87.7285C27.885 89.9135 29.6583 91.6869 31.8433 91.6869C34.0283 91.6869 35.8017 89.9135 35.8017 87.7285Z" fill="#4E878C"/>
</svg>
