<?xml version="1.0" standalone="no"?>
<!DOCTYPE svg PUBLIC "-//W3C//DTD SVG 20010904//EN"
 "http://www.w3.org/TR/2001/REC-SVG-20010904/DTD/svg10.dtd">
<svg version="1.0" xmlns="http://www.w3.org/2000/svg"
 width="336.000000pt" height="336.000000pt" viewBox="0 0 336.000000 336.000000"
 preserveAspectRatio="xMidYMid meet">
<metadata>
Created by potrace 1.14, written by Peter Selinger 2001-2017
</metadata>
<g transform="translate(0.000000,336.000000) scale(0.100000,-0.100000)"
fill="#000000" stroke="none">
<path d="M679 3356 c-2 -2 -26 -7 -53 -10 -59 -8 -182 -55 -249 -95 -179 -105
-313 -294 -365 -511 -3 -14 -7 -482 -8 -1040 -3 -1114 -4 -1078 58 -1228 92
-222 282 -384 529 -451 72 -20 99 -20 1109 -18 l1035 2 80 28 c81 29 189 83
235 119 138 107 234 249 282 415 l23 78 0 1035 c0 1168 6 1081 -80 1255 -99
199 -280 344 -505 404 -73 19 -107 20 -1081 21 -553 0 -1007 -2 -1010 -4z"/>
</g>
</svg>
